<?xml version="1.0" encoding="UTF-8" standalone="no"?>
<!-- Created with Inkscape (http://www.inkscape.org/) -->

<svg
   xmlns:dc="http://purl.org/dc/elements/1.1/"
   xmlns:cc="http://creativecommons.org/ns#"
   xmlns:rdf="http://www.w3.org/1999/02/22-rdf-syntax-ns#"
   xmlns:svg="http://www.w3.org/2000/svg"
   xmlns="http://www.w3.org/2000/svg"
   xmlns:sodipodi="http://sodipodi.sourceforge.net/DTD/sodipodi-0.dtd"
   xmlns:inkscape="http://www.inkscape.org/namespaces/inkscape"
   id="svg3355"
   version="1.1"
   inkscape:version="0.91 r13725"
   xml:space="preserve"
   width="195"
   height="190"
   viewBox="0 0 200 195"
   sodipodi:docname="css-ns.svg"><metadata
     id="metadata3361"><rdf:RDF><cc:Work
         rdf:about=""><dc:format>image/svg+xml</dc:format><dc:type
           rdf:resource="http://purl.org/dc/dcmitype/StillImage" /><dc:title></dc:title></cc:Work></rdf:RDF></metadata><defs
     id="defs3359"><clipPath
       clipPathUnits="userSpaceOnUse"
       id="clipPath3371"><path
         d="M 0,805 1020,805 1020,0 0,0 0,805 Z"
         id="path3373"
         inkscape:connector-curvature="0"
         style="clip-rule:evenodd" /></clipPath><clipPath
       clipPathUnits="userSpaceOnUse"
       id="clipPath3381"><path
         d="m 155,606 c 32,34.5 120.4078,2.4998 120.4078,2.4998 C 279.6009,607.1192 283,602.415 283,598.0093 l 0,-122.0186 C 283,471.5776 279.4202,468 274.9903,468 l -84.9806,0 c -4.4236,0 -9.74,3.1358 -11.8185,7.0363 C 178.1912,475.0363 123,571.5 155,606 Z"
         id="path3383"
         inkscape:connector-curvature="0"
         style="clip-rule:evenodd" /></clipPath><clipPath
       clipPathUnits="userSpaceOnUse"
       id="clipPath3405"><path
         d="m 159.9797,341 c 32,34.5 120.4078,2.4998 120.4078,2.4998 4.193,-1.3806 7.5922,-6.0848 7.5922,-10.4905 l 0,-122.0186 c 0,-4.4131 -3.5798,-7.9907 -8.0098,-7.9907 l -84.9805,0 c -4.4237,0 -9.74,3.1358 -11.8185,7.0363 0,0 -55.1912,96.4637 -23.1912,130.9637 z"
         id="path3407"
         inkscape:connector-curvature="0"
         style="clip-rule:evenodd" /></clipPath><clipPath
       clipPathUnits="userSpaceOnUse"
       id="clipPath3429"><path
         d="m 438.9797,341 c 32,34.5 120.4078,2.4998 120.4078,2.4998 4.193,-1.3806 7.5922,-6.0848 7.5922,-10.4905 l 0,-122.0186 c 0,-4.4131 -3.5798,-7.9907 -8.0098,-7.9907 l -84.9805,0 c -4.4237,0 -9.74,3.1358 -11.8185,7.0363 0,0 -55.1912,96.4637 -23.1912,130.9637 z"
         id="path3431"
         inkscape:connector-curvature="0"
         style="clip-rule:evenodd" /></clipPath><clipPath
       clipPathUnits="userSpaceOnUse"
       id="clipPath3453"><path
         d="m 438.9797,604.0094 c 32,34.5 120.4078,2.4998 120.4078,2.4998 4.193,-1.3806 7.5922,-6.0848 7.5922,-10.4905 l 0,-122.0186 c 0,-4.4131 -3.5798,-7.9907 -8.0098,-7.9907 l -84.9805,0 c -4.4237,0 -9.74,3.1358 -11.8185,7.0363 0,0 -55.1912,96.4637 -23.1912,130.9637 z"
         id="path3455"
         inkscape:connector-curvature="0"
         style="clip-rule:evenodd" /></clipPath><clipPath
       clipPathUnits="userSpaceOnUse"
       id="clipPath3477"><path
         d="m 710.9593,605.0094 c 32,34.5 120.4078,2.4998 120.4078,2.4998 4.1931,-1.3806 7.5922,-6.0848 7.5922,-10.4905 l 0,-122.0186 c 0,-4.4131 -3.5798,-7.9907 -8.0097,-7.9907 l -84.9805,0 c -4.4237,0 -9.74,3.1358 -11.8186,7.0363 0,0 -55.1912,96.4637 -23.1912,130.9637 z"
         id="path3479"
         inkscape:connector-curvature="0"
         style="clip-rule:evenodd" /></clipPath><clipPath
       clipPathUnits="userSpaceOnUse"
       id="clipPath3501"><path
         d="m 715.939,344 c 32,34.5 120.4078,2.4998 120.4078,2.4998 4.1931,-1.3806 7.5922,-6.0848 7.5922,-10.4905 l 0,-122.0186 c 0,-4.4131 -3.5798,-7.9907 -8.0097,-7.9907 l -84.9806,0 c -4.4236,0 -9.7399,3.1358 -11.8185,7.0363 0,0 -55.1912,96.4637 -23.1912,130.9637 z"
         id="path3503"
         inkscape:connector-curvature="0"
         style="clip-rule:evenodd" /></clipPath></defs><sodipodi:namedview
     pagecolor="#ffffff"
     bordercolor="#666666"
     borderopacity="1"
     objecttolerance="10"
     gridtolerance="10"
     guidetolerance="10"
     inkscape:pageopacity="0"
     inkscape:pageshadow="2"
     inkscape:window-width="1902"
     inkscape:window-height="1267"
     id="namedview3357"
     showgrid="false"
     inkscape:zoom="3.4433026"
     inkscape:cx="193.56923"
     inkscape:cy="933.0408"
     inkscape:window-x="0"
     inkscape:window-y="0"
     inkscape:window-maximized="0"
     inkscape:current-layer="g3363" /><g
     id="g3363"
     inkscape:groupmode="layer"
     inkscape:label="vaihtoehtoja_jarnolle"
     transform="matrix(1.25,0,0,-1.25,0,1006.25)"><g
       id="g3365" /><g
       id="g3560"
       transform="translate(-386.4,211.43571)"><g
         transform="translate(-42.057143,-26.942857)"
         id="g3449"><g
           clip-path="url(#clipPath3453)"
           id="g3451"><path
             inkscape:connector-curvature="0"
             id="path3457"
             style="fill:#95d067;fill-opacity:1;fill-rule:nonzero;stroke:none"
             d="m 424,625.0188 147.9797,0 0,-164.0094 -147.9797,0 0,164.0094 z" /></g></g><g
         transform="translate(-42.057143,-26.942857)"
         id="g3459"><g
           transform="matrix(1,0,0,-1,433.9797,630.0094)"
           id="g3461"><text
             id="text3463"
             style="font-variant:normal;font-weight:normal;font-size:100px;font-family:'Trebuchet MS';-inkscape-font-specification:TrebuchetMS;writing-mode:lr-tb;fill:#f65f89;fill-opacity:1;fill-rule:nonzero;stroke:none"
             transform="translate(0,94)"><tspan
               id="tspan3465"
               sodipodi:role="line"
               y="0"
               x="0 59.810001 107.91">CSS</tspan></text>
</g><g
           transform="matrix(1,0,0,-1,504.9797,524.0094)"
           id="g3467"><text
             id="text3469"
             style="font-variant:normal;font-weight:800;font-size:48px;font-family:'Abadi MT Condensed Light';-inkscape-font-specification:AbadiMT-CondensedExtraBold;writing-mode:lr-tb;fill:#f9faf9;fill-opacity:1;fill-rule:nonzero;stroke:none"
             transform="translate(0,42)"><tspan
               id="tspan3471"
               sodipodi:role="line"
               y="0"
               x="0 25.992001">NS</tspan></text>
</g></g></g></g></svg>
